<svg xmlns="http://www.w3.org/2000/svg" xmlns:xlink="http://www.w3.org/1999/xlink" width="480" height="210" viewBox="0 0 480 210" fill="none" role="img"><style>.eq rect{animation:eq 1.8s ease-in-out infinite;transform-box:fill-box;transform-origin:center bottom}@keyframes eq{0%,100%{transform:scaleY(.35)}50%{transform:scaleY(1)}}.bk{animation:bk 1.05s steps(1) infinite}@keyframes bk{50%{opacity:0}}</style><rect x="1" y="1" width="478" height="208" rx="14" fill="#FFFFFF" stroke="#DCCEFA" stroke-width="1.5"/><rect x="1" y="1" width="4" height="208" rx="2" fill="#7C3AED" opacity="0.85"/><g fill="#9333EA"><rect x="32" y="24" width="16" height="4"/><rect x="28" y="28" width="4" height="4"/><rect x="28" y="32" width="4" height="4"/><rect x="28" y="36" width="4" height="4"/><rect x="28" y="40" width="4" height="4"/><rect x="28" y="44" width="4" height="4"/><rect x="32" y="48" width="16" height="4"/><rect x="56" y="24" width="12" height="4"/><rect x="52" y="28" width="4" height="4"/><rect x="68" y="28" width="4" height="4"/><rect x="52" y="32" width="4" height="4"/><rect x="68" y="32" width="4" height="4"/><rect x="52" y="36" width="4" height="4"/><rect x="68" y="36" width="4" height="4"/><rect x="52" y="40" width="4" height="4"/><rect x="68" y="40" width="4" height="4"/><rect x="52" y="44" width="4" height="4"/><rect x="68" y="44" width="4" height="4"/><rect x="56" y="48" width="12" height="4"/><rect x="76" y="24" width="16" height="4"/><rect x="76" y="28" width="4" height="4"/><rect x="92" y="28" width="4" height="4"/><rect x="76" y="32" width="4" height="4"/><rect x="92" y="32" width="4" height="4"/><rect x="76" y="36" width="4" height="4"/><rect x="92" y="36" width="4" height="4"/><rect x="76" y="40" width="4" height="4"/><rect x="92" y="40" width="4" height="4"/><rect x="76" y="44" width="4" height="4"/><rect x="92" y="44" width="4" height="4"/><rect x="76" y="48" width="16" height="4"/><rect x="100" y="24" width="20" height="4"/><rect x="100" y="28" width="4" height="4"/><rect x="100" y="32" width="4" height="4"/><rect x="100" y="36" width="16" height="4"/><rect x="100" y="40" width="4" height="4"/><rect x="100" y="44" width="4" height="4"/><rect x="100" y="48" width="20" height="4"/><rect x="148" y="24" width="20" height="4"/><rect x="156" y="28" width="4" height="4"/><rect x="156" y="32" width="4" height="4"/><rect x="156" y="36" width="4" height="4"/><rect x="156" y="40" width="4" height="4"/><rect x="156" y="44" width="4" height="4"/><rect x="156" y="48" width="4" height="4"/><rect x="172" y="24" width="20" height="4"/><rect x="180" y="28" width="4" height="4"/><rect x="180" y="32" width="4" height="4"/><rect x="180" y="36" width="4" height="4"/><rect x="180" y="40" width="4" height="4"/><rect x="180" y="44" width="4" height="4"/><rect x="172" y="48" width="20" height="4"/><rect x="196" y="24" width="4" height="4"/><rect x="212" y="24" width="4" height="4"/><rect x="196" y="28" width="8" height="4"/><rect x="208" y="28" width="8" height="4"/><rect x="196" y="32" width="4" height="4"/><rect x="204" y="32" width="4" height="4"/><rect x="212" y="32" width="4" height="4"/><rect x="196" y="36" width="4" height="4"/><rect x="212" y="36" width="4" height="4"/><rect x="196" y="40" width="4" height="4"/><rect x="212" y="40" width="4" height="4"/><rect x="196" y="44" width="4" height="4"/><rect x="212" y="44" width="4" height="4"/><rect x="196" y="48" width="4" height="4"/><rect x="212" y="48" width="4" height="4"/><rect x="220" y="24" width="20" height="4"/><rect x="220" y="28" width="4" height="4"/><rect x="220" y="32" width="4" height="4"/><rect x="220" y="36" width="16" height="4"/><rect x="220" y="40" width="4" height="4"/><rect x="220" y="44" width="4" height="4"/><rect x="220" y="48" width="20" height="4"/></g><text x="454" y="42" font-family="ui-monospace,'JetBrains Mono','Fira Code','Cascadia Mono','Segoe UI Mono',Consolas,monospace" font-size="10.5" fill="#8878B3" font-weight="400" text-anchor="end" letter-spacing="1.4">wakatime · last 7 days</text><path d="M26 66h428" stroke="#DCCEFA" stroke-width="1"/><g class="eq"><rect x="28" y="140" width="18" height="26" rx="4" fill="#7C3AED" opacity="0.25" style="animation-delay:0.0s"/></g><g class="eq"><rect x="62" y="118" width="18" height="48" rx="4" fill="#7C3AED" opacity="0.38" style="animation-delay:0.13s"/></g><g class="eq"><rect x="96" y="132" width="18" height="34" rx="4" fill="#7C3AED" opacity="0.51" style="animation-delay:0.26s"/></g><g class="eq"><rect x="130" y="104" width="18" height="62" rx="4" fill="#7C3AED" opacity="0.64" style="animation-delay:0.39s"/></g><g class="eq"><rect x="164" y="126" width="18" height="40" rx="4" fill="#7C3AED" opacity="0.25" style="animation-delay:0.52s"/></g><g class="eq"><rect x="198" y="112" width="18" height="54" rx="4" fill="#7C3AED" opacity="0.38" style="animation-delay:0.65s"/></g><g class="eq"><rect x="232" y="136" width="18" height="30" rx="4" fill="#7C3AED" opacity="0.51" style="animation-delay:0.78s"/></g><g class="eq"><rect x="266" y="114" width="18" height="52" rx="4" fill="#7C3AED" opacity="0.64" style="animation-delay:0.91s"/></g><g class="eq"><rect x="300" y="124" width="18" height="42" rx="4" fill="#7C3AED" opacity="0.25" style="animation-delay:1.04s"/></g><g class="eq"><rect x="334" y="102" width="18" height="64" rx="4" fill="#7C3AED" opacity="0.38" style="animation-delay:1.17s"/></g><g class="eq"><rect x="368" y="134" width="18" height="32" rx="4" fill="#7C3AED" opacity="0.51" style="animation-delay:1.3s"/></g><g class="eq"><rect x="402" y="116" width="18" height="50" rx="4" fill="#7C3AED" opacity="0.64" style="animation-delay:1.43s"/></g><path d="M26 182h428" stroke="#DCCEFA" stroke-width="1"/><text x="28" y="202" font-family="ui-monospace,'JetBrains Mono','Fira Code','Cascadia Mono','Segoe UI Mono',Consolas,monospace" font-size="12" fill="#4B3781" font-weight="400" text-anchor="start">$ waka --connect</text><rect x="150" y="191" width="8" height="13" fill="#A855F7" class="bk"/><text x="454" y="202" font-family="ui-monospace,'JetBrains Mono','Fira Code','Cascadia Mono','Segoe UI Mono',Consolas,monospace" font-size="10.5" fill="#8878B3" font-weight="400" text-anchor="end">no api key yet — see SETUP.md</text></svg>