<svg xmlns="http://www.w3.org/2000/svg" width="1400" height="130" viewBox="0 0 1400 130">
<rect width="1400" height="130" fill="#000000"/>
<g opacity=".45"><line x1="0" y1="0" x2="0" y2="130" stroke="#FFFFFF" stroke-opacity="0.08" stroke-width="0.5"/>
<line x1="24" y1="0" x2="24" y2="130" stroke="#FFFFFF" stroke-opacity="0.08" stroke-width="0.5"/>
<line x1="48" y1="0" x2="48" y2="130" stroke="#FFFFFF" stroke-opacity="0.08" stroke-width="0.5"/>
<line x1="72" y1="0" x2="72" y2="130" stroke="#FFFFFF" stroke-opacity="0.08" stroke-width="0.5"/>
<line x1="96" y1="0" x2="96" y2="130" stroke="#FFFFFF" stroke-opacity="0.08" stroke-width="0.5"/>
<line x1="120" y1="0" x2="120" y2="130" stroke="#FFFFFF" stroke-opacity="0.08" stroke-width="0.5"/>
<line x1="144" y1="0" x2="144" y2="130" stroke="#FFFFFF" stroke-opacity="0.08" stroke-width="0.5"/>
<line x1="168" y1="0" x2="168" y2="130" stroke="#FFFFFF" stroke-opacity="0.08" stroke-width="0.5"/>
<line x1="192" y1="0" x2="192" y2="130" stroke="#FFFFFF" stroke-opacity="0.08" stroke-width="0.5"/>
<line x1="216" y1="0" x2="216" y2="130" stroke="#FFFFFF" stroke-opacity="0.08" stroke-width="0.5"/>
<line x1="240" y1="0" x2="240" y2="130" stroke="#FFFFFF" stroke-opacity="0.08" stroke-width="0.5"/>
<line x1="264" y1="0" x2="264" y2="130" stroke="#FFFFFF" stroke-opacity="0.08" stroke-width="0.5"/>
<line x1="288" y1="0" x2="288" y2="130" stroke="#FFFFFF" stroke-opacity="0.08" stroke-width="0.5"/>
<line x1="312" y1="0" x2="312" y2="130" stroke="#FFFFFF" stroke-opacity="0.08" stroke-width="0.5"/>
<line x1="336" y1="0" x2="336" y2="130" stroke="#FFFFFF" stroke-opacity="0.08" stroke-width="0.5"/>
<line x1="360" y1="0" x2="360" y2="130" stroke="#FFFFFF" stroke-opacity="0.08" stroke-width="0.5"/>
<line x1="384" y1="0" x2="384" y2="130" stroke="#FFFFFF" stroke-opacity="0.08" stroke-width="0.5"/>
<line x1="408" y1="0" x2="408" y2="130" stroke="#FFFFFF" stroke-opacity="0.08" stroke-width="0.5"/>
<line x1="432" y1="0" x2="432" y2="130" stroke="#FFFFFF" stroke-opacity="0.08" stroke-width="0.5"/>
<line x1="456" y1="0" x2="456" y2="130" stroke="#FFFFFF" stroke-opacity="0.08" stroke-width="0.5"/>
<line x1="480" y1="0" x2="480" y2="130" stroke="#FFFFFF" stroke-opacity="0.08" stroke-width="0.5"/>
<line x1="504" y1="0" x2="504" y2="130" stroke="#FFFFFF" stroke-opacity="0.08" stroke-width="0.5"/>
<line x1="528" y1="0" x2="528" y2="130" stroke="#FFFFFF" stroke-opacity="0.08" stroke-width="0.5"/>
<line x1="552" y1="0" x2="552" y2="130" stroke="#FFFFFF" stroke-opacity="0.08" stroke-width="0.5"/>
<line x1="576" y1="0" x2="576" y2="130" stroke="#FFFFFF" stroke-opacity="0.08" stroke-width="0.5"/>
<line x1="600" y1="0" x2="600" y2="130" stroke="#FFFFFF" stroke-opacity="0.08" stroke-width="0.5"/>
<line x1="624" y1="0" x2="624" y2="130" stroke="#FFFFFF" stroke-opacity="0.08" stroke-width="0.5"/>
<line x1="648" y1="0" x2="648" y2="130" stroke="#FFFFFF" stroke-opacity="0.08" stroke-width="0.5"/>
<line x1="672" y1="0" x2="672" y2="130" stroke="#FFFFFF" stroke-opacity="0.08" stroke-width="0.5"/>
<line x1="696" y1="0" x2="696" y2="130" stroke="#FFFFFF" stroke-opacity="0.08" stroke-width="0.5"/>
<line x1="720" y1="0" x2="720" y2="130" stroke="#FFFFFF" stroke-opacity="0.08" stroke-width="0.5"/>
<line x1="744" y1="0" x2="744" y2="130" stroke="#FFFFFF" stroke-opacity="0.08" stroke-width="0.5"/>
<line x1="768" y1="0" x2="768" y2="130" stroke="#FFFFFF" stroke-opacity="0.08" stroke-width="0.5"/>
<line x1="792" y1="0" x2="792" y2="130" stroke="#FFFFFF" stroke-opacity="0.08" stroke-width="0.5"/>
<line x1="816" y1="0" x2="816" y2="130" stroke="#FFFFFF" stroke-opacity="0.08" stroke-width="0.5"/>
<line x1="840" y1="0" x2="840" y2="130" stroke="#FFFFFF" stroke-opacity="0.08" stroke-width="0.5"/>
<line x1="864" y1="0" x2="864" y2="130" stroke="#FFFFFF" stroke-opacity="0.08" stroke-width="0.5"/>
<line x1="888" y1="0" x2="888" y2="130" stroke="#FFFFFF" stroke-opacity="0.08" stroke-width="0.5"/>
<line x1="912" y1="0" x2="912" y2="130" stroke="#FFFFFF" stroke-opacity="0.08" stroke-width="0.5"/>
<line x1="936" y1="0" x2="936" y2="130" stroke="#FFFFFF" stroke-opacity="0.08" stroke-width="0.5"/>
<line x1="960" y1="0" x2="960" y2="130" stroke="#FFFFFF" stroke-opacity="0.08" stroke-width="0.5"/>
<line x1="984" y1="0" x2="984" y2="130" stroke="#FFFFFF" stroke-opacity="0.08" stroke-width="0.5"/>
<line x1="1008" y1="0" x2="1008" y2="130" stroke="#FFFFFF" stroke-opacity="0.08" stroke-width="0.5"/>
<line x1="1032" y1="0" x2="1032" y2="130" stroke="#FFFFFF" stroke-opacity="0.08" stroke-width="0.5"/>
<line x1="1056" y1="0" x2="1056" y2="130" stroke="#FFFFFF" stroke-opacity="0.08" stroke-width="0.5"/>
<line x1="1080" y1="0" x2="1080" y2="130" stroke="#FFFFFF" stroke-opacity="0.08" stroke-width="0.5"/>
<line x1="1104" y1="0" x2="1104" y2="130" stroke="#FFFFFF" stroke-opacity="0.08" stroke-width="0.5"/>
<line x1="1128" y1="0" x2="1128" y2="130" stroke="#FFFFFF" stroke-opacity="0.08" stroke-width="0.5"/>
<line x1="1152" y1="0" x2="1152" y2="130" stroke="#FFFFFF" stroke-opacity="0.08" stroke-width="0.5"/>
<line x1="1176" y1="0" x2="1176" y2="130" stroke="#FFFFFF" stroke-opacity="0.08" stroke-width="0.5"/>
<line x1="1200" y1="0" x2="1200" y2="130" stroke="#FFFFFF" stroke-opacity="0.08" stroke-width="0.5"/>
<line x1="1224" y1="0" x2="1224" y2="130" stroke="#FFFFFF" stroke-opacity="0.08" stroke-width="0.5"/>
<line x1="1248" y1="0" x2="1248" y2="130" stroke="#FFFFFF" stroke-opacity="0.08" stroke-width="0.5"/>
<line x1="1272" y1="0" x2="1272" y2="130" stroke="#FFFFFF" stroke-opacity="0.08" stroke-width="0.5"/>
<line x1="1296" y1="0" x2="1296" y2="130" stroke="#FFFFFF" stroke-opacity="0.08" stroke-width="0.5"/>
<line x1="1320" y1="0" x2="1320" y2="130" stroke="#FFFFFF" stroke-opacity="0.08" stroke-width="0.5"/>
<line x1="1344" y1="0" x2="1344" y2="130" stroke="#FFFFFF" stroke-opacity="0.08" stroke-width="0.5"/>
<line x1="1368" y1="0" x2="1368" y2="130" stroke="#FFFFFF" stroke-opacity="0.08" stroke-width="0.5"/>
<line x1="1392" y1="0" x2="1392" y2="130" stroke="#FFFFFF" stroke-opacity="0.08" stroke-width="0.5"/>
<line x1="0" y1="0" x2="1400" y2="0" stroke="#FFFFFF" stroke-opacity="0.08" stroke-width="0.5"/>
<line x1="0" y1="24" x2="1400" y2="24" stroke="#FFFFFF" stroke-opacity="0.08" stroke-width="0.5"/>
<line x1="0" y1="48" x2="1400" y2="48" stroke="#FFFFFF" stroke-opacity="0.08" stroke-width="0.5"/>
<line x1="0" y1="72" x2="1400" y2="72" stroke="#FFFFFF" stroke-opacity="0.08" stroke-width="0.5"/>
<line x1="0" y1="96" x2="1400" y2="96" stroke="#FFFFFF" stroke-opacity="0.08" stroke-width="0.5"/>
<line x1="0" y1="120" x2="1400" y2="120" stroke="#FFFFFF" stroke-opacity="0.08" stroke-width="0.5"/></g>
<rect x="12" y="12" width="1376" height="106" rx="18" fill="none" stroke="#F5F7FA" stroke-opacity=".22"/>
<g><circle cx="322.4" cy="35.0" r="2.1" fill="#F5F7FA" opacity="0.82"/>
<circle cx="329.8" cy="35.0" r="2.1" fill="#F5F7FA" opacity="0.82"/>
<circle cx="337.2" cy="35.0" r="2.1" fill="#F5F7FA" opacity="0.82"/>
<circle cx="344.6" cy="35.0" r="2.1" fill="#F5F7FA" opacity="0.82"/>
<circle cx="315.0" cy="42.4" r="2.1" fill="#F5F7FA" opacity="0.82"/>
<circle cx="315.0" cy="49.8" r="2.1" fill="#F5F7FA" opacity="0.82"/>
<circle cx="315.0" cy="57.2" r="2.1" fill="#F5F7FA" opacity="0.82"/>
<circle cx="315.0" cy="64.6" r="2.1" fill="#F5F7FA" opacity="0.82"/>
<circle cx="315.0" cy="72.0" r="2.1" fill="#F5F7FA" opacity="0.82"/>
<circle cx="322.4" cy="79.4" r="2.1" fill="#F5F7FA" opacity="0.82"/>
<circle cx="329.8" cy="79.4" r="2.1" fill="#F5F7FA" opacity="0.82"/>
<circle cx="337.2" cy="79.4" r="2.1" fill="#F5F7FA" opacity="0.82"/>
<circle cx="344.6" cy="79.4" r="2.1" fill="#F5F7FA" opacity="0.82"/>
<circle cx="372.79999999999995" cy="35.0" r="2.1" fill="#F5F7FA" opacity="0.82"/>
<circle cx="380.2" cy="35.0" r="2.1" fill="#F5F7FA" opacity="0.82"/>
<circle cx="387.59999999999997" cy="35.0" r="2.1" fill="#F5F7FA" opacity="0.82"/>
<circle cx="365.4" cy="42.4" r="2.1" fill="#F5F7FA" opacity="0.82"/>
<circle cx="395.0" cy="42.4" r="2.1" fill="#F5F7FA" opacity="0.82"/>
<circle cx="365.4" cy="49.8" r="2.1" fill="#F5F7FA" opacity="0.82"/>
<circle cx="395.0" cy="49.8" r="2.1" fill="#F5F7FA" opacity="0.82"/>
<circle cx="365.4" cy="57.2" r="2.1" fill="#F5F7FA" opacity="0.82"/>
<circle cx="395.0" cy="57.2" r="2.1" fill="#F5F7FA" opacity="0.82"/>
<circle cx="365.4" cy="64.6" r="2.1" fill="#F5F7FA" opacity="0.82"/>
<circle cx="395.0" cy="64.6" r="2.1" fill="#F5F7FA" opacity="0.82"/>
<circle cx="365.4" cy="72.0" r="2.1" fill="#F5F7FA" opacity="0.82"/>
<circle cx="395.0" cy="72.0" r="2.1" fill="#F5F7FA" opacity="0.82"/>
<circle cx="372.79999999999995" cy="79.4" r="2.1" fill="#F5F7FA" opacity="0.82"/>
<circle cx="380.2" cy="79.4" r="2.1" fill="#F5F7FA" opacity="0.82"/>
<circle cx="387.59999999999997" cy="79.4" r="2.1" fill="#F5F7FA" opacity="0.82"/>
<circle cx="415.79999999999995" cy="35.0" r="2.1" fill="#F5F7FA" opacity="0.82"/>
<circle cx="423.19999999999993" cy="35.0" r="2.1" fill="#F5F7FA" opacity="0.82"/>
<circle cx="430.59999999999997" cy="35.0" r="2.1" fill="#F5F7FA" opacity="0.82"/>
<circle cx="437.99999999999994" cy="35.0" r="2.1" fill="#F5F7FA" opacity="0.82"/>
<circle cx="415.79999999999995" cy="42.4" r="2.1" fill="#F5F7FA" opacity="0.82"/>
<circle cx="445.4" cy="42.4" r="2.1" fill="#F5F7FA" opacity="0.82"/>
<circle cx="415.79999999999995" cy="49.8" r="2.1" fill="#F5F7FA" opacity="0.82"/>
<circle cx="445.4" cy="49.8" r="2.1" fill="#F5F7FA" opacity="0.82"/>
<circle cx="415.79999999999995" cy="57.2" r="2.1" fill="#F5F7FA" opacity="0.82"/>
<circle cx="445.4" cy="57.2" r="2.1" fill="#F5F7FA" opacity="0.82"/>
<circle cx="415.79999999999995" cy="64.6" r="2.1" fill="#F5F7FA" opacity="0.82"/>
<circle cx="445.4" cy="64.6" r="2.1" fill="#F5F7FA" opacity="0.82"/>
<circle cx="415.79999999999995" cy="72.0" r="2.1" fill="#F5F7FA" opacity="0.82"/>
<circle cx="445.4" cy="72.0" r="2.1" fill="#F5F7FA" opacity="0.82"/>
<circle cx="415.79999999999995" cy="79.4" r="2.1" fill="#F5F7FA" opacity="0.82"/>
<circle cx="423.19999999999993" cy="79.4" r="2.1" fill="#F5F7FA" opacity="0.82"/>
<circle cx="430.59999999999997" cy="79.4" r="2.1" fill="#F5F7FA" opacity="0.82"/>
<circle cx="437.99999999999994" cy="79.4" r="2.1" fill="#F5F7FA" opacity="0.82"/>
<circle cx="466.19999999999993" cy="35.0" r="2.1" fill="#F5F7FA" opacity="0.82"/>
<circle cx="473.5999999999999" cy="35.0" r="2.1" fill="#F5F7FA" opacity="0.82"/>
<circle cx="480.99999999999994" cy="35.0" r="2.1" fill="#F5F7FA" opacity="0.82"/>
<circle cx="488.3999999999999" cy="35.0" r="2.1" fill="#F5F7FA" opacity="0.82"/>
<circle cx="495.79999999999995" cy="35.0" r="2.1" fill="#F5F7FA" opacity="0.82"/>
<circle cx="466.19999999999993" cy="42.4" r="2.1" fill="#F5F7FA" opacity="0.82"/>
<circle cx="466.19999999999993" cy="49.8" r="2.1" fill="#F5F7FA" opacity="0.82"/>
<circle cx="466.19999999999993" cy="57.2" r="2.1" fill="#F5F7FA" opacity="0.82"/>
<circle cx="473.5999999999999" cy="57.2" r="2.1" fill="#F5F7FA" opacity="0.82"/>
<circle cx="480.99999999999994" cy="57.2" r="2.1" fill="#F5F7FA" opacity="0.82"/>
<circle cx="488.3999999999999" cy="57.2" r="2.1" fill="#F5F7FA" opacity="0.82"/>
<circle cx="466.19999999999993" cy="64.6" r="2.1" fill="#F5F7FA" opacity="0.82"/>
<circle cx="466.19999999999993" cy="72.0" r="2.1" fill="#F5F7FA" opacity="0.82"/>
<circle cx="466.19999999999993" cy="79.4" r="2.1" fill="#F5F7FA" opacity="0.82"/>
<circle cx="473.5999999999999" cy="79.4" r="2.1" fill="#F5F7FA" opacity="0.82"/>
<circle cx="480.99999999999994" cy="79.4" r="2.1" fill="#F5F7FA" opacity="0.82"/>
<circle cx="488.3999999999999" cy="79.4" r="2.1" fill="#F5F7FA" opacity="0.82"/>
<circle cx="495.79999999999995" cy="79.4" r="2.1" fill="#F5F7FA" opacity="0.82"/>
<circle cx="552.1999999999999" cy="35.0" r="2.1" fill="#F5F7FA" opacity="0.82"/>
<circle cx="559.5999999999999" cy="35.0" r="2.1" fill="#F5F7FA" opacity="0.82"/>
<circle cx="566.9999999999999" cy="35.0" r="2.1" fill="#F5F7FA" opacity="0.82"/>
<circle cx="574.4" cy="35.0" r="2.1" fill="#F5F7FA" opacity="0.82"/>
<circle cx="581.8" cy="35.0" r="2.1" fill="#F5F7FA" opacity="0.82"/>
<circle cx="566.9999999999999" cy="42.4" r="2.1" fill="#F5F7FA" opacity="0.82"/>
<circle cx="566.9999999999999" cy="49.8" r="2.1" fill="#F5F7FA" opacity="0.82"/>
<circle cx="566.9999999999999" cy="57.2" r="2.1" fill="#F5F7FA" opacity="0.82"/>
<circle cx="566.9999999999999" cy="64.6" r="2.1" fill="#F5F7FA" opacity="0.82"/>
<circle cx="566.9999999999999" cy="72.0" r="2.1" fill="#F5F7FA" opacity="0.82"/>
<circle cx="552.1999999999999" cy="79.4" r="2.1" fill="#F5F7FA" opacity="0.82"/>
<circle cx="559.5999999999999" cy="79.4" r="2.1" fill="#F5F7FA" opacity="0.82"/>
<circle cx="566.9999999999999" cy="79.4" r="2.1" fill="#F5F7FA" opacity="0.82"/>
<circle cx="574.4" cy="79.4" r="2.1" fill="#F5F7FA" opacity="0.82"/>
<circle cx="581.8" cy="79.4" r="2.1" fill="#F5F7FA" opacity="0.82"/>
<circle cx="602.5999999999999" cy="35.0" r="2.1" fill="#F5F7FA" opacity="0.82"/>
<circle cx="632.1999999999999" cy="35.0" r="2.1" fill="#F5F7FA" opacity="0.82"/>
<circle cx="602.5999999999999" cy="42.4" r="2.1" fill="#F5F7FA" opacity="0.82"/>
<circle cx="609.9999999999999" cy="42.4" r="2.1" fill="#F5F7FA" opacity="0.82"/>
<circle cx="632.1999999999999" cy="42.4" r="2.1" fill="#F5F7FA" opacity="0.82"/>
<circle cx="602.5999999999999" cy="49.8" r="2.1" fill="#F5F7FA" opacity="0.82"/>
<circle cx="617.3999999999999" cy="49.8" r="2.1" fill="#F5F7FA" opacity="0.82"/>
<circle cx="632.1999999999999" cy="49.8" r="2.1" fill="#F5F7FA" opacity="0.82"/>
<circle cx="602.5999999999999" cy="57.2" r="2.1" fill="#F5F7FA" opacity="0.82"/>
<circle cx="624.8" cy="57.2" r="2.1" fill="#F5F7FA" opacity="0.82"/>
<circle cx="632.1999999999999" cy="57.2" r="2.1" fill="#F5F7FA" opacity="0.82"/>
<circle cx="602.5999999999999" cy="64.6" r="2.1" fill="#F5F7FA" opacity="0.82"/>
<circle cx="632.1999999999999" cy="64.6" r="2.1" fill="#F5F7FA" opacity="0.82"/>
<circle cx="602.5999999999999" cy="72.0" r="2.1" fill="#F5F7FA" opacity="0.82"/>
<circle cx="632.1999999999999" cy="72.0" r="2.1" fill="#F5F7FA" opacity="0.82"/>
<circle cx="602.5999999999999" cy="79.4" r="2.1" fill="#F5F7FA" opacity="0.82"/>
<circle cx="632.1999999999999" cy="79.4" r="2.1" fill="#F5F7FA" opacity="0.82"/>
<circle cx="688.5999999999999" cy="35.0" r="2.1" fill="#F5F7FA" opacity="0.82"/>
<circle cx="718.1999999999999" cy="35.0" r="2.1" fill="#F5F7FA" opacity="0.82"/>
<circle cx="688.5999999999999" cy="42.4" r="2.1" fill="#F5F7FA" opacity="0.82"/>
<circle cx="695.9999999999999" cy="42.4" r="2.1" fill="#F5F7FA" opacity="0.82"/>
<circle cx="710.8" cy="42.4" r="2.1" fill="#F5F7FA" opacity="0.82"/>
<circle cx="718.1999999999999" cy="42.4" r="2.1" fill="#F5F7FA" opacity="0.82"/>
<circle cx="688.5999999999999" cy="49.8" r="2.1" fill="#F5F7FA" opacity="0.82"/>
<circle cx="703.3999999999999" cy="49.8" r="2.1" fill="#F5F7FA" opacity="0.82"/>
<circle cx="718.1999999999999" cy="49.8" r="2.1" fill="#F5F7FA" opacity="0.82"/>
<circle cx="688.5999999999999" cy="57.2" r="2.1" fill="#F5F7FA" opacity="0.82"/>
<circle cx="703.3999999999999" cy="57.2" r="2.1" fill="#F5F7FA" opacity="0.82"/>
<circle cx="718.1999999999999" cy="57.2" r="2.1" fill="#F5F7FA" opacity="0.82"/>
<circle cx="688.5999999999999" cy="64.6" r="2.1" fill="#F5F7FA" opacity="0.82"/>
<circle cx="718.1999999999999" cy="64.6" r="2.1" fill="#F5F7FA" opacity="0.82"/>
<circle cx="688.5999999999999" cy="72.0" r="2.1" fill="#F5F7FA" opacity="0.82"/>
<circle cx="718.1999999999999" cy="72.0" r="2.1" fill="#F5F7FA" opacity="0.82"/>
<circle cx="688.5999999999999" cy="79.4" r="2.1" fill="#F5F7FA" opacity="0.82"/>
<circle cx="718.1999999999999" cy="79.4" r="2.1" fill="#F5F7FA" opacity="0.82"/>
<circle cx="746.3999999999999" cy="35.0" r="2.1" fill="#F5F7FA" opacity="0.82"/>
<circle cx="753.7999999999998" cy="35.0" r="2.1" fill="#F5F7FA" opacity="0.82"/>
<circle cx="761.1999999999999" cy="35.0" r="2.1" fill="#F5F7FA" opacity="0.82"/>
<circle cx="738.9999999999999" cy="42.4" r="2.1" fill="#F5F7FA" opacity="0.82"/>
<circle cx="768.5999999999999" cy="42.4" r="2.1" fill="#F5F7FA" opacity="0.82"/>
<circle cx="738.9999999999999" cy="49.8" r="2.1" fill="#F5F7FA" opacity="0.82"/>
<circle cx="768.5999999999999" cy="49.8" r="2.1" fill="#F5F7FA" opacity="0.82"/>
<circle cx="738.9999999999999" cy="57.2" r="2.1" fill="#F5F7FA" opacity="0.82"/>
<circle cx="768.5999999999999" cy="57.2" r="2.1" fill="#F5F7FA" opacity="0.82"/>
<circle cx="738.9999999999999" cy="64.6" r="2.1" fill="#F5F7FA" opacity="0.82"/>
<circle cx="768.5999999999999" cy="64.6" r="2.1" fill="#F5F7FA" opacity="0.82"/>
<circle cx="738.9999999999999" cy="72.0" r="2.1" fill="#F5F7FA" opacity="0.82"/>
<circle cx="768.5999999999999" cy="72.0" r="2.1" fill="#F5F7FA" opacity="0.82"/>
<circle cx="746.3999999999999" cy="79.4" r="2.1" fill="#F5F7FA" opacity="0.82"/>
<circle cx="753.7999999999998" cy="79.4" r="2.1" fill="#F5F7FA" opacity="0.82"/>
<circle cx="761.1999999999999" cy="79.4" r="2.1" fill="#F5F7FA" opacity="0.82"/>
<circle cx="789.3999999999999" cy="35.0" r="2.1" fill="#F5F7FA" opacity="0.82"/>
<circle cx="796.7999999999998" cy="35.0" r="2.1" fill="#F5F7FA" opacity="0.82"/>
<circle cx="804.1999999999998" cy="35.0" r="2.1" fill="#F5F7FA" opacity="0.82"/>
<circle cx="811.5999999999999" cy="35.0" r="2.1" fill="#F5F7FA" opacity="0.82"/>
<circle cx="818.9999999999999" cy="35.0" r="2.1" fill="#F5F7FA" opacity="0.82"/>
<circle cx="804.1999999999998" cy="42.4" r="2.1" fill="#F5F7FA" opacity="0.82"/>
<circle cx="804.1999999999998" cy="49.8" r="2.1" fill="#F5F7FA" opacity="0.82"/>
<circle cx="804.1999999999998" cy="57.2" r="2.1" fill="#F5F7FA" opacity="0.82"/>
<circle cx="804.1999999999998" cy="64.6" r="2.1" fill="#F5F7FA" opacity="0.82"/>
<circle cx="804.1999999999998" cy="72.0" r="2.1" fill="#F5F7FA" opacity="0.82"/>
<circle cx="804.1999999999998" cy="79.4" r="2.1" fill="#F5F7FA" opacity="0.82"/>
<circle cx="839.7999999999998" cy="35.0" r="2.1" fill="#F5F7FA" opacity="0.82"/>
<circle cx="847.1999999999998" cy="35.0" r="2.1" fill="#F5F7FA" opacity="0.82"/>
<circle cx="854.5999999999998" cy="35.0" r="2.1" fill="#F5F7FA" opacity="0.82"/>
<circle cx="861.9999999999999" cy="35.0" r="2.1" fill="#F5F7FA" opacity="0.82"/>
<circle cx="869.3999999999999" cy="35.0" r="2.1" fill="#F5F7FA" opacity="0.82"/>
<circle cx="854.5999999999998" cy="42.4" r="2.1" fill="#F5F7FA" opacity="0.82"/>
<circle cx="854.5999999999998" cy="49.8" r="2.1" fill="#F5F7FA" opacity="0.82"/>
<circle cx="854.5999999999998" cy="57.2" r="2.1" fill="#F5F7FA" opacity="0.82"/>
<circle cx="854.5999999999998" cy="64.6" r="2.1" fill="#F5F7FA" opacity="0.82"/>
<circle cx="854.5999999999998" cy="72.0" r="2.1" fill="#F5F7FA" opacity="0.82"/>
<circle cx="839.7999999999998" cy="79.4" r="2.1" fill="#F5F7FA" opacity="0.82"/>
<circle cx="847.1999999999998" cy="79.4" r="2.1" fill="#F5F7FA" opacity="0.82"/>
<circle cx="854.5999999999998" cy="79.4" r="2.1" fill="#F5F7FA" opacity="0.82"/>
<circle cx="861.9999999999999" cy="79.4" r="2.1" fill="#F5F7FA" opacity="0.82"/>
<circle cx="869.3999999999999" cy="79.4" r="2.1" fill="#F5F7FA" opacity="0.82"/>
<circle cx="897.5999999999998" cy="35.0" r="2.1" fill="#F5F7FA" opacity="0.82"/>
<circle cx="904.9999999999998" cy="35.0" r="2.1" fill="#F5F7FA" opacity="0.82"/>
<circle cx="912.3999999999999" cy="35.0" r="2.1" fill="#F5F7FA" opacity="0.82"/>
<circle cx="890.1999999999998" cy="42.4" r="2.1" fill="#F5F7FA" opacity="0.82"/>
<circle cx="919.7999999999998" cy="42.4" r="2.1" fill="#F5F7FA" opacity="0.82"/>
<circle cx="890.1999999999998" cy="49.8" r="2.1" fill="#F5F7FA" opacity="0.82"/>
<circle cx="919.7999999999998" cy="49.8" r="2.1" fill="#F5F7FA" opacity="0.82"/>
<circle cx="890.1999999999998" cy="57.2" r="2.1" fill="#F5F7FA" opacity="0.82"/>
<circle cx="919.7999999999998" cy="57.2" r="2.1" fill="#F5F7FA" opacity="0.82"/>
<circle cx="890.1999999999998" cy="64.6" r="2.1" fill="#F5F7FA" opacity="0.82"/>
<circle cx="919.7999999999998" cy="64.6" r="2.1" fill="#F5F7FA" opacity="0.82"/>
<circle cx="890.1999999999998" cy="72.0" r="2.1" fill="#F5F7FA" opacity="0.82"/>
<circle cx="919.7999999999998" cy="72.0" r="2.1" fill="#F5F7FA" opacity="0.82"/>
<circle cx="897.5999999999998" cy="79.4" r="2.1" fill="#F5F7FA" opacity="0.82"/>
<circle cx="904.9999999999998" cy="79.4" r="2.1" fill="#F5F7FA" opacity="0.82"/>
<circle cx="912.3999999999999" cy="79.4" r="2.1" fill="#F5F7FA" opacity="0.82"/>
<circle cx="940.5999999999998" cy="35.0" r="2.1" fill="#F5F7FA" opacity="0.82"/>
<circle cx="970.1999999999998" cy="35.0" r="2.1" fill="#F5F7FA" opacity="0.82"/>
<circle cx="940.5999999999998" cy="42.4" r="2.1" fill="#F5F7FA" opacity="0.82"/>
<circle cx="947.9999999999998" cy="42.4" r="2.1" fill="#F5F7FA" opacity="0.82"/>
<circle cx="970.1999999999998" cy="42.4" r="2.1" fill="#F5F7FA" opacity="0.82"/>
<circle cx="940.5999999999998" cy="49.8" r="2.1" fill="#F5F7FA" opacity="0.82"/>
<circle cx="955.3999999999997" cy="49.8" r="2.1" fill="#F5F7FA" opacity="0.82"/>
<circle cx="970.1999999999998" cy="49.8" r="2.1" fill="#F5F7FA" opacity="0.82"/>
<circle cx="940.5999999999998" cy="57.2" r="2.1" fill="#F5F7FA" opacity="0.82"/>
<circle cx="962.7999999999998" cy="57.2" r="2.1" fill="#F5F7FA" opacity="0.82"/>
<circle cx="970.1999999999998" cy="57.2" r="2.1" fill="#F5F7FA" opacity="0.82"/>
<circle cx="940.5999999999998" cy="64.6" r="2.1" fill="#F5F7FA" opacity="0.82"/>
<circle cx="970.1999999999998" cy="64.6" r="2.1" fill="#F5F7FA" opacity="0.82"/>
<circle cx="940.5999999999998" cy="72.0" r="2.1" fill="#F5F7FA" opacity="0.82"/>
<circle cx="970.1999999999998" cy="72.0" r="2.1" fill="#F5F7FA" opacity="0.82"/>
<circle cx="940.5999999999998" cy="79.4" r="2.1" fill="#F5F7FA" opacity="0.82"/>
<circle cx="970.1999999999998" cy="79.4" r="2.1" fill="#F5F7FA" opacity="0.82"/></g>
<text x="700" y="100" text-anchor="middle" fill="#F5F7FA" opacity=".56" font-family="ui-monospace, SFMono-Regular, Consolas, monospace" font-size="15" letter-spacing="4">BUILT FOR SYSTEMS THAT KEEP BUSINESSES MOVING · DUVAN CORE v1.0</text>
</svg>